<svg xmlns="http://www.w3.org/2000/svg" width="123" height="28" viewBox="0 0 123 28">
  <g id="组_948" data-name="组 948" transform="translate(-88.087 -441.339)">
    <g id="组_947" data-name="组 947" transform="translate(0 68.42)">
      <path id="路径_325" data-name="路径 325" d="M96.676,420.547H94.4V410.318a6.449,6.449,0,1,1,12.9,0v4.39H96.676Zm0-8.109h8.357v-2.119a4.179,4.179,0,1,0-8.357,0Z" transform="translate(-4.5 -21.679)" fill="#070303"/>
      <rect id="矩形_165" data-name="矩形 165" width="2.206" height="6.998" transform="translate(95.364 372.918)" fill="#003f91"/>
      <rect id="矩形_166" data-name="矩形 166" width="6.997" height="2.206" transform="translate(99.438 379.92) rotate(-59.999)" fill="#469e37"/>
      <rect id="矩形_167" data-name="矩形 167" width="2.206" height="6.997" transform="matrix(0.866, -0.5, 0.5, 0.866, 88.087, 374.963)" fill="#f2992b"/>
      <path id="路径_326" data-name="路径 326" d="M144.854,409.193a5.252,5.252,0,0,1,1.635-3.9,5.718,5.718,0,0,1,6.113-1.184,5.709,5.709,0,0,1,1.813,1.2,5.867,5.867,0,0,1,1.235,1.807,5.209,5.209,0,0,1,.423,2.081,5.569,5.569,0,0,1-3.46,5.1,5.687,5.687,0,0,1-2.133.4,5.489,5.489,0,0,1-3.991-1.6,5.25,5.25,0,0,1-1.635-3.9m2.207,0a3.51,3.51,0,0,0,1,2.516,3.28,3.28,0,0,0,4.8-.006,3.635,3.635,0,0,0,.006-5,3.292,3.292,0,0,0-4.8,0,3.481,3.481,0,0,0-1,2.493" transform="translate(-40.436 -21.725)" fill="#070303"/>
      <path id="路径_327" data-name="路径 327" d="M190.06,415.272,185.288,404.5h2.264l3.081,7.008L193.6,404.5h1.412l3.011,6.985L201.1,404.5h2.276l-4.808,10.769h-1.05l-3.2-7.648-3.209,7.648Z" transform="translate(-68.574 -22.3)" fill="#070303"/>
      <path id="路径_328" data-name="路径 328" d="M259.829,413.745a8.522,8.522,0,0,1-2.137,1,7.813,7.813,0,0,1-2.272.332,5.218,5.218,0,0,1-3.941-1.528,5.628,5.628,0,0,1-1.472-4.076,5.205,5.205,0,0,1,1.415-3.789,4.923,4.923,0,0,1,3.693-1.454,4.554,4.554,0,0,1,3.575,1.477,5.778,5.778,0,0,1,1.319,3.993v.3h-7.8a3.084,3.084,0,0,0,3.327,3.135,6.412,6.412,0,0,0,2.07-.367,10.121,10.121,0,0,0,2.227-1.111Zm-7.623-5.221h5.514a2.766,2.766,0,0,0-.823-1.827,2.513,2.513,0,0,0-1.8-.688,2.836,2.836,0,0,0-1.929.637,3.135,3.135,0,0,0-.959,1.878" transform="translate(-114.314 -22.104)" fill="#070303"/>
      <path id="路径_329" data-name="路径 329" d="M319.746,408.519V395h2.31v11.415h4.013v2.1Z" transform="translate(-163.596 -15.566)" fill="#070303"/>
      <path id="路径_330" data-name="路径 330" d="M353.856,413.968a5.734,5.734,0,0,1-1.6,1.126,4.185,4.185,0,0,1-1.721.356,3.509,3.509,0,0,1-3.793-3.792V404.5h2.171v6.605a2.848,2.848,0,0,0,.554,1.931,2.187,2.187,0,0,0,1.721.624,3.136,3.136,0,0,0,1.453-.321,3.89,3.89,0,0,0,1.219-1.068V404.5H356v10.783h-2.147Z" transform="translate(-182.615 -22.298)" fill="#070303"/>
      <path id="路径_331" data-name="路径 331" d="M391.06,408.521a4.157,4.157,0,0,1-1.079.407,5.584,5.584,0,0,1-1.243.132,3.263,3.263,0,0,1-2.561-.85,4.82,4.82,0,0,1-.741-3.1v-5.026H383.6v-.206l3.77-4.1h.245v2.467h3.372v1.836h-3.372v4.866a2.871,2.871,0,0,0,.333,1.7,1.6,1.6,0,0,0,1.243.384,3.569,3.569,0,0,0,1.867-.516Z" transform="translate(-208.673 -16.118)" fill="#070303"/>
      <path id="路径_332" data-name="路径 332" d="M415.316,395.793a1.2,1.2,0,1,1,.35.864,1.175,1.175,0,0,1-.35-.864" transform="translate(-231.153 -15.339)" fill="#070303"/>
      <rect id="矩形_168" data-name="矩形 168" width="2.147" height="10.783" transform="translate(184.301 382.203)" fill="#070303"/>
      <path id="路径_333" data-name="路径 333" d="M430.612,409.86a5.145,5.145,0,0,1,1.6-3.821,5.6,5.6,0,0,1,5.989-1.159,5.6,5.6,0,0,1,1.776,1.171,5.75,5.75,0,0,1,1.21,1.771,5.1,5.1,0,0,1,.415,2.039,5.457,5.457,0,0,1-3.389,5,5.577,5.577,0,0,1-2.089.392,5.378,5.378,0,0,1-3.91-1.568,5.144,5.144,0,0,1-1.6-3.821m2.163,0a3.436,3.436,0,0,0,.975,2.465,3.212,3.212,0,0,0,4.7-.006,3.561,3.561,0,0,0,.006-4.9,3.224,3.224,0,0,0-4.706,0,3.411,3.411,0,0,0-.975,2.443" transform="translate(-241.554 -22.278)" fill="#070303"/>
      <path id="路径_334" data-name="路径 334" d="M475.061,414.881V404.1h2.147v1.319a5.752,5.752,0,0,1,1.6-1.126,4.187,4.187,0,0,1,1.721-.356,3.718,3.718,0,0,1,2.76,1.015,3.783,3.783,0,0,1,1.009,2.789v7.142h-2.147v-6.593a2.852,2.852,0,0,0-.554-1.932,2.189,2.189,0,0,0-1.721-.624,3.133,3.133,0,0,0-1.453.321,3.937,3.937,0,0,0-1.22,1.056v7.772Z" transform="translate(-273.216 -21.897)" fill="#070303"/>
      <path id="路径_335" data-name="路径 335" d="M298.12,404.113l0,0a3.006,3.006,0,0,0-1.185-.256,2.479,2.479,0,0,0-1.558.56,7.994,7.994,0,0,0-1.616,1.972v-2.346H291.61v10.783h2.147v-6.092a4.624,4.624,0,0,1,.934-2.094,1.989,1.989,0,0,1,1.529-.735,2.531,2.531,0,0,1,1,.2,3.094,3.094,0,0,1,.9.451Z" transform="translate(-143.724 -21.84)" fill="#070303"/>
      <path id="路径_336" data-name="路径 336" d="M304.692,454.149v2.961h1.9v.327h-2.275v-3.288Z" transform="translate(-152.747 -57.494)" fill="#5f5e5e"/>
      <path id="路径_337" data-name="路径 337" d="M315.072,457.465a1.646,1.646,0,0,1,.276.972h-1.879a1.025,1.025,0,0,0,.217.621.674.674,0,0,0,.534.221.739.739,0,0,0,.474-.147.833.833,0,0,0,.239-.373h.369a1.072,1.072,0,0,1-.323.562,1.105,1.105,0,0,1-.76.267,1.063,1.063,0,0,1-.82-.336,1.476,1.476,0,0,1-.014-1.8,1,1,0,0,1,.82-.373,1.016,1.016,0,0,1,.866.386m-1.368.129a.918.918,0,0,0-.226.557h1.487c-.046-.511-.3-.764-.751-.764a.666.666,0,0,0-.511.207" transform="translate(-158.941 -59.582)" fill="#5f5e5e"/>
      <path id="路径_338" data-name="路径 338" d="M324.011,457.346a.95.95,0,0,1,.212.65v1.529h-.345v-.4a1.108,1.108,0,0,1-.364.317,1.209,1.209,0,0,1-.594.147.859.859,0,0,1-.571-.179.6.6,0,0,1-.221-.479.671.671,0,0,1,.327-.612,1.523,1.523,0,0,1,.829-.2l.571-.009v-.125c0-.4-.207-.6-.622-.6a.758.758,0,0,0-.428.106.52.52,0,0,0-.239.341l-.364-.028a.816.816,0,0,1,.368-.557,1.259,1.259,0,0,1,.686-.166.975.975,0,0,1,.755.267m-.7,1.046c-.534.009-.8.184-.8.529a.327.327,0,0,0,.133.272.585.585,0,0,0,.359.106.9.9,0,0,0,.6-.221.637.637,0,0,0,.258-.493v-.2Z" transform="translate(-165.329 -59.582)" fill="#5f5e5e"/>
      <path id="路径_339" data-name="路径 339" d="M333.29,453.926v3.352h-.346v-.391a.84.84,0,0,1-.792.456.976.976,0,0,1-.815-.377,1.394,1.394,0,0,1-.267-.884,1.358,1.358,0,0,1,.267-.866.933.933,0,0,1,.8-.382.858.858,0,0,1,.787.5v-1.409Zm-1.667,1.487a1.1,1.1,0,0,0-.175.667,1.168,1.168,0,0,0,.171.677.665.665,0,0,0,.58.281.648.648,0,0,0,.558-.276,1.116,1.116,0,0,0,.175-.649v-.046a1.088,1.088,0,0,0-.2-.672.622.622,0,0,0-.52-.258.672.672,0,0,0-.589.276" transform="translate(-171.644 -57.336)" fill="#5f5e5e"/>
      <path id="路径_340" data-name="路径 340" d="M346.218,455.4h.589v.308h-.589v1.515a.266.266,0,0,0,.05.189.228.228,0,0,0,.175.06h.3v.309h-.359a.516.516,0,0,1-.419-.152.607.607,0,0,1-.115-.405v-1.515h-.479V455.4h.479v-.617l.364-.152Z" transform="translate(-181.76 -57.836)" fill="#5f5e5e"/>
      <path id="路径_341" data-name="路径 341" d="M352.142,453.926v1.363a.844.844,0,0,1,.764-.456.813.813,0,0,1,.64.244,1.006,1.006,0,0,1,.221.7v1.5H353.4v-1.446a.771.771,0,0,0-.156-.511.594.594,0,0,0-.461-.18.562.562,0,0,0-.456.221.84.84,0,0,0-.184.557v1.358h-.368v-3.352Z" transform="translate(-186.273 -57.336)" fill="#5f5e5e"/>
      <path id="路径_342" data-name="路径 342" d="M362.174,457.465a1.646,1.646,0,0,1,.276.972h-1.879a1.023,1.023,0,0,0,.216.621.676.676,0,0,0,.534.221.738.738,0,0,0,.474-.147.831.831,0,0,0,.239-.373h.368a1.073,1.073,0,0,1-.322.562,1.106,1.106,0,0,1-.76.267,1.064,1.064,0,0,1-.82-.336,1.475,1.475,0,0,1-.014-1.8,1,1,0,0,1,.819-.373,1.017,1.017,0,0,1,.866.386m-1.368.129a.918.918,0,0,0-.226.557h1.487c-.046-.511-.3-.764-.751-.764a.666.666,0,0,0-.511.207" transform="translate(-192.214 -59.582)" fill="#5f5e5e"/>
      <path id="路径_343" data-name="路径 343" d="M377.368,454.149v.327h-1.953v1.1h1.842v.327h-1.842v1.206h2.03v.327h-2.408v-3.288Z" transform="translate(-202.701 -57.494)" fill="#5f5e5e"/>
      <path id="路径_344" data-name="路径 344" d="M387.073,458.06v1.464H386.7v-1.437c0-.465-.212-.7-.626-.7a.586.586,0,0,0-.428.18.767.767,0,0,0-.212.516v1.437h-.368v-2.381h.368v.351a.832.832,0,0,1,.318-.3.848.848,0,0,1,.428-.11c.589,0,.889.327.889.981" transform="translate(-209.794 -59.582)" fill="#5f5e5e"/>
      <path id="路径_345" data-name="路径 345" d="M395.517,457.465a1.648,1.648,0,0,1,.276.972h-1.879a1.025,1.025,0,0,0,.216.621.675.675,0,0,0,.534.221.738.738,0,0,0,.474-.147.831.831,0,0,0,.239-.373h.368a1.069,1.069,0,0,1-.322.562,1.1,1.1,0,0,1-.759.267,1.064,1.064,0,0,1-.82-.336,1.474,1.474,0,0,1-.014-1.8,1,1,0,0,1,.82-.373,1.017,1.017,0,0,1,.866.386m-1.368.129a.918.918,0,0,0-.226.557h1.487c-.046-.511-.3-.764-.751-.764a.666.666,0,0,0-.511.207" transform="translate(-215.767 -59.582)" fill="#5f5e5e"/>
      <path id="路径_346" data-name="路径 346" d="M404.266,457.134v.368a1.194,1.194,0,0,0-.354-.051.56.56,0,0,0-.465.245.86.86,0,0,0-.189.566v1.262h-.364v-2.381h.364v.414a.871.871,0,0,1,.249-.327.663.663,0,0,1,.433-.152.856.856,0,0,1,.327.055" transform="translate(-222.394 -59.582)" fill="#5f5e5e"/>
      <path id="路径_347" data-name="路径 347" d="M410.287,457.553v-.41h.369v2.215c0,.76-.364,1.142-1.087,1.142a1.194,1.194,0,0,1-.737-.193.864.864,0,0,1-.318-.58h.368a.52.52,0,0,0,.2.354.809.809,0,0,0,.484.12c.479,0,.718-.267.718-.792v-.419a.859.859,0,0,1-.8.479.984.984,0,0,1-.787-.34,1.406,1.406,0,0,1,0-1.7.964.964,0,0,1,.787-.35.855.855,0,0,1,.8.474m-1.3.088a.984.984,0,0,0-.193.64,1.015,1.015,0,0,0,.17.612.669.669,0,0,0,.576.267.688.688,0,0,0,.562-.248,1.14,1.14,0,0,0,0-1.271.665.665,0,0,0-.557-.258.654.654,0,0,0-.557.258" transform="translate(-226.28 -59.582)" fill="#5f5e5e"/>
      <path id="路径_348" data-name="路径 348" d="M417.678,457.3l.728,1.878.7-1.878h.405l-1.3,3.292h-.4l.41-.967-.944-2.325Z" transform="translate(-232.542 -59.741)" fill="#5f5e5e"/>
      <path id="路径_349" data-name="路径 349" d="M433.032,454.149a1.2,1.2,0,0,1,.774.226.839.839,0,0,1,.295.69.818.818,0,0,1-.152.488.758.758,0,0,1-.446.285v.009a.627.627,0,0,1,.525.6l.051.506a.881.881,0,0,0,.175.484h-.41a.9.9,0,0,1-.133-.438l-.041-.437a.544.544,0,0,0-.207-.419.776.776,0,0,0-.474-.12h-.995v1.414h-.377v-3.288Zm-1.041,1.547h.995a.84.84,0,0,0,.557-.17.669.669,0,0,0,0-.9.858.858,0,0,0-.562-.152h-.995Z" transform="translate(-242.268 -57.495)" fill="#5f5e5e"/>
      <path id="路径_350" data-name="路径 350" d="M443.774,457.465a1.644,1.644,0,0,1,.276.972h-1.879a1.025,1.025,0,0,0,.216.621.675.675,0,0,0,.534.221.739.739,0,0,0,.474-.147.833.833,0,0,0,.239-.373H444a1.07,1.07,0,0,1-.322.562,1.1,1.1,0,0,1-.76.267,1.063,1.063,0,0,1-.82-.336,1.475,1.475,0,0,1-.014-1.8,1,1,0,0,1,.819-.373,1.016,1.016,0,0,1,.866.386m-1.367.129a.916.916,0,0,0-.226.557h1.487c-.046-.511-.3-.764-.751-.764a.666.666,0,0,0-.511.207" transform="translate(-249.516 -59.582)" fill="#5f5e5e"/>
      <path id="路径_351" data-name="路径 351" d="M450.642,457.3l.682,1.92.682-1.92h.4l-.9,2.381h-.373l-.9-2.381Z" transform="translate(-255.534 -59.741)" fill="#5f5e5e"/>
      <path id="路径_352" data-name="路径 352" d="M460.549,457.448a1.447,1.447,0,0,1,0,1.768,1.08,1.08,0,0,1-.856.373,1.057,1.057,0,0,1-.852-.373,1.287,1.287,0,0,1-.3-.88,1.309,1.309,0,0,1,.3-.888,1.169,1.169,0,0,1,1.7,0m-1.441.23a1.233,1.233,0,0,0,0,1.312.683.683,0,0,0,.589.29.709.709,0,0,0,.594-.29,1.233,1.233,0,0,0,0-1.312.709.709,0,0,0-.594-.29.683.683,0,0,0-.589.29" transform="translate(-261.449 -59.582)" fill="#5f5e5e"/>
      <rect id="矩形_169" data-name="矩形 169" width="0.364" height="3.352" transform="translate(199.955 396.59)" fill="#5f5e5e"/>
      <path id="路径_353" data-name="路径 353" d="M472.365,457.3v1.455a.754.754,0,0,0,.143.507.594.594,0,0,0,.47.17.6.6,0,0,0,.424-.184.839.839,0,0,0,.235-.5V457.3h.369v2.381h-.369v-.369a.9.9,0,0,1-.774.433c-.58,0-.866-.327-.866-.971V457.3Z" transform="translate(-271.034 -59.741)" fill="#5f5e5e"/>
      <path id="路径_354" data-name="路径 354" d="M481.08,455.4h.589v.308h-.589v1.515a.264.264,0,0,0,.051.189.227.227,0,0,0,.175.06h.3v.309h-.359a.515.515,0,0,1-.419-.152.605.605,0,0,1-.115-.405v-1.515h-.479V455.4h.479v-.617l.364-.152Z" transform="translate(-276.903 -57.836)" fill="#5f5e5e"/>
      <path id="路径_355" data-name="路径 355" d="M487.207,454.26a.238.238,0,0,1,.083.193.27.27,0,0,1-.083.2.291.291,0,0,1-.4,0,.264.264,0,0,1-.078-.2.234.234,0,0,1,.078-.193.29.29,0,0,1,.4,0m-.014,3.2h-.368V455.08h.368Z" transform="translate(-281.53 -57.518)" fill="#5f5e5e"/>
      <path id="路径_356" data-name="路径 356" d="M492.42,457.448a1.448,1.448,0,0,1,0,1.768,1.08,1.08,0,0,1-.856.373,1.058,1.058,0,0,1-.852-.373,1.287,1.287,0,0,1-.3-.88,1.309,1.309,0,0,1,.3-.888,1.169,1.169,0,0,1,1.7,0m-1.442.23a1.235,1.235,0,0,0,0,1.312.683.683,0,0,0,.589.29.709.709,0,0,0,.594-.29,1.233,1.233,0,0,0,0-1.312.709.709,0,0,0-.594-.29.683.683,0,0,0-.589.29" transform="translate(-284.151 -59.582)" fill="#5f5e5e"/>
      <path id="路径_357" data-name="路径 357" d="M502.111,458.06v1.464h-.368v-1.437c0-.465-.212-.7-.626-.7a.586.586,0,0,0-.428.18.768.768,0,0,0-.212.516v1.437h-.368v-2.381h.368v.351a.834.834,0,0,1,.318-.3.848.848,0,0,1,.428-.11c.589,0,.889.327.889.981" transform="translate(-291.058 -59.582)" fill="#5f5e5e"/>
    </g>
  </g>
</svg>
